<svg id="visual" viewBox="0 0 960 540" width="960" height="540" xmlns="http://www.w3.org/2000/svg" xmlns:xlink="http://www.w3.org/1999/xlink" version="1.1"><g fill="none" stroke="#0c1816" stroke-width="2"><circle r="66" cx="7" cy="51"></circle><circle r="3" cx="611" cy="83"></circle><circle r="41" cx="821" cy="156"></circle><circle r="46" cx="219" cy="33"></circle><circle r="33" cx="239" cy="302"></circle><circle r="3" cx="863" cy="7"></circle><circle r="35" cx="172" cy="475"></circle><circle r="17" cx="747" cy="366"></circle><circle r="13" cx="339" cy="495"></circle><circle r="48" cx="955" cy="316"></circle><circle r="57" cx="327" cy="144"></circle><circle r="11" cx="13" cy="222"></circle><circle r="17" cx="661" cy="242"></circle><circle r="54" cx="924" cy="536"></circle><circle r="47" cx="506" cy="293"></circle><circle r="21" cx="535" cy="432"></circle><circle r="4" cx="33" cy="458"></circle><circle r="63" cx="378" cy="357"></circle><circle r="11" cx="457" cy="21"></circle><circle r="23" cx="179" cy="167"></circle><circle r="38" cx="720" cy="527"></circle><circle r="14" cx="464" cy="158"></circle><circle r="41" cx="954" cy="181"></circle></g></svg>