<svg id="visual" viewBox="0 0 960 540" width="960" height="540" xmlns="http://www.w3.org/2000/svg" xmlns:xlink="http://www.w3.org/1999/xlink" version="1.1"><g stroke-width="1" stroke-linejoin="bevel"><path d="M508.3 230L505.3 195L443.7 198Z" fill="#0d1917" stroke="#0d1917"></path><path d="M443.7 198L386.7 291L508.3 230Z" fill="#0e1b19" stroke="#0e1b19"></path><path d="M443.7 198L336 218L386.7 291Z" fill="#0d1917" stroke="#0d1917"></path><path d="M627 122L501.3 77L505.3 195Z" fill="#122421" stroke="#122421"></path><path d="M505.3 195L501.3 77L443.7 198Z" fill="#122523" stroke="#122523"></path><path d="M443.7 198L307 105L336 218Z" fill="#112220" stroke="#112220"></path><path d="M336 218L332 237L386.7 291Z" fill="#122421" stroke="#122421"></path><path d="M300 338L454.7 361L386.7 291Z" fill="#112220" stroke="#112220"></path><path d="M386.7 291L454.7 361L508.3 230Z" fill="#101f1d" stroke="#101f1d"></path><path d="M501.3 77L434.7 61L443.7 198Z" fill="#122523" stroke="#122523"></path><path d="M669 273L640 154L508.3 230Z" fill="#122421" stroke="#122421"></path><path d="M508.3 230L640 154L505.3 195Z" fill="#0e1b19" stroke="#0e1b19"></path><path d="M640 154L627 122L505.3 195Z" fill="#0d1917" stroke="#0d1917"></path><path d="M454.7 361L505.3 394L508.3 230Z" fill="#101e1c" stroke="#101e1c"></path><path d="M505.3 394L600 358L508.3 230Z" fill="#101e1c" stroke="#101e1c"></path><path d="M434.7 61L307 105L443.7 198Z" fill="#0d1917" stroke="#0d1917"></path><path d="M196.3 211L239.3 309L332 237Z" fill="#0e1b19" stroke="#0e1b19"></path><path d="M600 358L669 273L508.3 230Z" fill="#132724" stroke="#132724"></path><path d="M239.3 309L300 338L332 237Z" fill="#101e1c" stroke="#101e1c"></path><path d="M332 237L300 338L386.7 291Z" fill="#101e1c" stroke="#101e1c"></path><path d="M464.7 477L520.3 454L505.3 394Z" fill="#101e1c" stroke="#101e1c"></path><path d="M603 0L508.3 0L501.3 77Z" fill="#122421" stroke="#122421"></path><path d="M501.3 77L508.3 0L434.7 61Z" fill="#122523" stroke="#122523"></path><path d="M434.7 61L298 0L307 105Z" fill="#101f1d" stroke="#101f1d"></path><path d="M508.3 0L419.7 0L434.7 61Z" fill="#122523" stroke="#122523"></path><path d="M464.7 477L505.3 394L454.7 361Z" fill="#0f1c1a" stroke="#0f1c1a"></path><path d="M505.3 394L618 425L600 358Z" fill="#0e1b19" stroke="#0e1b19"></path><path d="M710.7 0L603 0L627 122Z" fill="#122523" stroke="#122523"></path><path d="M627 122L603 0L501.3 77Z" fill="#0d1917" stroke="#0d1917"></path><path d="M748.7 65L627 122L640 154Z" fill="#122523" stroke="#122523"></path><path d="M600 358L728.7 399L669 273Z" fill="#0d1917" stroke="#0d1917"></path><path d="M520.3 454L618 425L505.3 394Z" fill="#0d1917" stroke="#0d1917"></path><path d="M196.3 211L332 237L336 218Z" fill="#101e1c" stroke="#101e1c"></path><path d="M354 489L464.7 477L454.7 361Z" fill="#0c1816" stroke="#0c1816"></path><path d="M354 489L454.7 361L300 338Z" fill="#101e1c" stroke="#101e1c"></path><path d="M520.3 454L567.3 540L618 425Z" fill="#101e1c" stroke="#101e1c"></path><path d="M419.7 0L298 0L434.7 61Z" fill="#0d1917" stroke="#0d1917"></path><path d="M307 105L196.3 211L336 218Z" fill="#101f1d" stroke="#101f1d"></path><path d="M178.3 119L196.3 211L307 105Z" fill="#101f1d" stroke="#101f1d"></path><path d="M779.7 279L755.7 215L669 273Z" fill="#0c1816" stroke="#0c1816"></path><path d="M669 273L755.7 215L640 154Z" fill="#132724" stroke="#132724"></path><path d="M192.3 489L354 489L300 338Z" fill="#11211e" stroke="#11211e"></path><path d="M728.7 399L779.7 279L669 273Z" fill="#112220" stroke="#112220"></path><path d="M755.7 215L748.7 65L640 154Z" fill="#101e1c" stroke="#101e1c"></path><path d="M830.3 185L748.7 65L755.7 215Z" fill="#0f1c1a" stroke="#0f1c1a"></path><path d="M197.3 0L178.3 119L307 105Z" fill="#122421" stroke="#122421"></path><path d="M711.7 461L728.7 399L618 425Z" fill="#11211e" stroke="#11211e"></path><path d="M618 425L728.7 399L600 358Z" fill="#101f1d" stroke="#101f1d"></path><path d="M748.7 65L710.7 0L627 122Z" fill="#112220" stroke="#112220"></path><path d="M354 489L439.7 540L464.7 477Z" fill="#122421" stroke="#122421"></path><path d="M464.7 477L567.3 540L520.3 454Z" fill="#0e1b19" stroke="#0e1b19"></path><path d="M135.7 265L185.3 378L239.3 309Z" fill="#122421" stroke="#122421"></path><path d="M239.3 309L185.3 378L300 338Z" fill="#0f1c1a" stroke="#0f1c1a"></path><path d="M135.7 265L239.3 309L196.3 211Z" fill="#101f1d" stroke="#101f1d"></path><path d="M439.7 540L567.3 540L464.7 477Z" fill="#0d1917" stroke="#0d1917"></path><path d="M605 540L711.7 461L618 425Z" fill="#112220" stroke="#112220"></path><path d="M872.3 336L863.3 238L779.7 279Z" fill="#122523" stroke="#122523"></path><path d="M122.7 201L135.7 265L196.3 211Z" fill="#11211e" stroke="#11211e"></path><path d="M567.3 540L605 540L618 425Z" fill="#122523" stroke="#122523"></path><path d="M298 0L197.3 0L307 105Z" fill="#0e1b19" stroke="#0e1b19"></path><path d="M178.3 119L122.7 201L196.3 211Z" fill="#11211e" stroke="#11211e"></path><path d="M103.7 68L122.7 201L178.3 119Z" fill="#101f1d" stroke="#101f1d"></path><path d="M863.3 238L830.3 185L779.7 279Z" fill="#101e1c" stroke="#101e1c"></path><path d="M779.7 279L830.3 185L755.7 215Z" fill="#0d1917" stroke="#0d1917"></path><path d="M748.7 65L832.3 0L710.7 0Z" fill="#0d1917" stroke="#0d1917"></path><path d="M830.3 185L814.3 56L748.7 65Z" fill="#122523" stroke="#122523"></path><path d="M192.3 489L284 540L354 489Z" fill="#122523" stroke="#122523"></path><path d="M354 489L284 540L439.7 540Z" fill="#112220" stroke="#112220"></path><path d="M824.3 410L779.7 279L728.7 399Z" fill="#11211e" stroke="#11211e"></path><path d="M960 0L832.3 0L814.3 56Z" fill="#122421" stroke="#122421"></path><path d="M185.3 378L192.3 489L300 338Z" fill="#132724" stroke="#132724"></path><path d="M68.7 465L192.3 489L185.3 378Z" fill="#0e1b19" stroke="#0e1b19"></path><path d="M197.3 0L144.7 0L178.3 119Z" fill="#101f1d" stroke="#101f1d"></path><path d="M765.7 540L824.3 410L711.7 461Z" fill="#0f1c1a" stroke="#0f1c1a"></path><path d="M711.7 461L824.3 410L728.7 399Z" fill="#101f1d" stroke="#101f1d"></path><path d="M144.7 0L103.7 68L178.3 119Z" fill="#112220" stroke="#112220"></path><path d="M192.3 489L239.3 540L284 540Z" fill="#122523" stroke="#122523"></path><path d="M824.3 410L872.3 336L779.7 279Z" fill="#112220" stroke="#112220"></path><path d="M0 332L86.7 363L135.7 265Z" fill="#112220" stroke="#112220"></path><path d="M135.7 265L86.7 363L185.3 378Z" fill="#11211e" stroke="#11211e"></path><path d="M0 242L135.7 265L122.7 201Z" fill="#101f1d" stroke="#101f1d"></path><path d="M960 105L814.3 56L830.3 185Z" fill="#0f1c1a" stroke="#0f1c1a"></path><path d="M814.3 56L832.3 0L748.7 65Z" fill="#0c1816" stroke="#0c1816"></path><path d="M605 540L765.7 540L711.7 461Z" fill="#11211e" stroke="#11211e"></path><path d="M824.3 410L960 375L872.3 336Z" fill="#11211e" stroke="#11211e"></path><path d="M68.7 465L145.7 540L192.3 489Z" fill="#122523" stroke="#122523"></path><path d="M192.3 489L145.7 540L239.3 540Z" fill="#0d1917" stroke="#0d1917"></path><path d="M765.7 540L814.3 540L824.3 410Z" fill="#0c1816" stroke="#0c1816"></path><path d="M0 142L0 242L122.7 201Z" fill="#0e1b19" stroke="#0e1b19"></path><path d="M86.7 363L68.7 465L185.3 378Z" fill="#101e1c" stroke="#101e1c"></path><path d="M0 414L68.7 465L86.7 363Z" fill="#132724" stroke="#132724"></path><path d="M0 111L0 142L103.7 68Z" fill="#0e1b19" stroke="#0e1b19"></path><path d="M103.7 68L0 142L122.7 201Z" fill="#101e1c" stroke="#101e1c"></path><path d="M960 278L960 179L863.3 238Z" fill="#11211e" stroke="#11211e"></path><path d="M863.3 238L960 179L830.3 185Z" fill="#0f1c1a" stroke="#0f1c1a"></path><path d="M960 278L863.3 238L872.3 336Z" fill="#0f1c1a" stroke="#0f1c1a"></path><path d="M0 0L0 111L103.7 68Z" fill="#132724" stroke="#132724"></path><path d="M960 375L960 278L872.3 336Z" fill="#0e1b19" stroke="#0e1b19"></path><path d="M0 242L0 332L135.7 265Z" fill="#101f1d" stroke="#101f1d"></path><path d="M960 179L960 105L830.3 185Z" fill="#0c1816" stroke="#0c1816"></path><path d="M960 456L960 375L824.3 410Z" fill="#0f1c1a" stroke="#0f1c1a"></path><path d="M0 332L0 414L86.7 363Z" fill="#112220" stroke="#112220"></path><path d="M68.7 465L0 540L145.7 540Z" fill="#0c1816" stroke="#0c1816"></path><path d="M144.7 0L0 0L103.7 68Z" fill="#0d1917" stroke="#0d1917"></path><path d="M960 105L960 0L814.3 56Z" fill="#11211e" stroke="#11211e"></path><path d="M814.3 540L960 456L824.3 410Z" fill="#11211e" stroke="#11211e"></path><path d="M0 414L0 540L68.7 465Z" fill="#132724" stroke="#132724"></path><path d="M814.3 540L960 540L960 456Z" fill="#122421" stroke="#122421"></path></g></svg>