<svg id="visual" viewBox="0 0 960 540" width="960" height="540" xmlns="http://www.w3.org/2000/svg" xmlns:xlink="http://www.w3.org/1999/xlink" version="1.1"><path d="M694 540L709.2 522C724.3 504 754.7 468 770 432C785.3 396 785.7 360 778.3 324C771 288 756 252 738.8 216C721.7 180 702.3 144 710 108C717.7 72 752.3 36 769.7 18L787 0L960 0L960 18C960 36 960 72 960 108C960 144 960 180 960 216C960 252 960 288 960 324C960 360 960 396 960 432C960 468 960 504 960 522L960 540Z" fill="#0c1816"></path><path d="M801 540L799.2 522C797.3 504 793.7 468 784 432C774.3 396 758.7 360 747.3 324C736 288 729 252 728.3 216C727.7 180 733.3 144 748.2 108C763 72 787 36 799 18L811 0L960 0L960 18C960 36 960 72 960 108C960 144 960 180 960 216C960 252 960 288 960 324C960 360 960 396 960 432C960 468 960 504 960 522L960 540Z" fill="#101e1b"></path><path d="M825 540L815.8 522C806.7 504 788.3 468 785.7 432C783 396 796 360 814.8 324C833.7 288 858.3 252 852.8 216C847.3 180 811.7 144 795 108C778.3 72 780.7 36 781.8 18L783 0L960 0L960 18C960 36 960 72 960 108C960 144 960 180 960 216C960 252 960 288 960 324C960 360 960 396 960 432C960 468 960 504 960 522L960 540Z" fill="#132421"></path><path d="M868 540L875 522C882 504 896 468 905 432C914 396 918 360 914.8 324C911.7 288 901.3 252 901.3 216C901.3 180 911.7 144 912.8 108C914 72 906 36 902 18L898 0L960 0L960 18C960 36 960 72 960 108C960 144 960 180 960 216C960 252 960 288 960 324C960 360 960 396 960 432C960 468 960 504 960 522L960 540Z" fill="#162a26"></path><path d="M893 540L895 522C897 504 901 468 897.5 432C894 396 883 360 885.2 324C887.3 288 902.7 252 917.2 216C931.7 180 945.3 144 951.7 108C958 72 957 36 956.5 18L956 0L960 0L960 18C960 36 960 72 960 108C960 144 960 180 960 216C960 252 960 288 960 324C960 360 960 396 960 432C960 468 960 504 960 522L960 540Z" fill="#18302c"></path></svg>