<svg xmlns="http://www.w3.org/2000/svg" version="1.1" xmlns:xlink="http://www.w3.org/1999/xlink" xmlns:svgjs="http://svgjs.dev/svgjs" width="900" height="1000" preserveAspectRatio="none" viewBox="0 0 900 1000"><g mask="url(&quot;#SvgjsMask1077&quot;)" fill="none"><rect width="900" height="1000" x="0" y="0" fill="rgba(34, 75, 69, 1)"></rect><path d="M184 422L824 421" stroke-width="10" stroke="url(&quot;#SvgjsLinearGradient1078&quot;)" stroke-linecap="round" class="Right"></path><path d="M412 80L-101 79" stroke-width="10" stroke="url(&quot;#SvgjsLinearGradient1078&quot;)" stroke-linecap="round" class="Right"></path><path d="M93 407L-582 406" stroke-width="8" stroke="url(&quot;#SvgjsLinearGradient1078&quot;)" stroke-linecap="round" class="Right"></path><path d="M279 613L623 612" stroke-width="8" stroke="url(&quot;#SvgjsLinearGradient1078&quot;)" stroke-linecap="round" class="Right"></path><path d="M739 267L1348 266" stroke-width="10" stroke="url(&quot;#SvgjsLinearGradient1078&quot;)" stroke-linecap="round" class="Right"></path><path d="M778 583L311 582" stroke-width="10" stroke="url(&quot;#SvgjsLinearGradient1078&quot;)" stroke-linecap="round" class="Right"></path><path d="M240 177L815 176" stroke-width="8" stroke="url(&quot;#SvgjsLinearGradient1078&quot;)" stroke-linecap="round" class="Right"></path><path d="M700 31L1186 30" stroke-width="6" stroke="url(&quot;#SvgjsLinearGradient1079&quot;)" stroke-linecap="round" class="Left"></path><path d="M340 926L634 925" stroke-width="8" stroke="url(&quot;#SvgjsLinearGradient1078&quot;)" stroke-linecap="round" class="Right"></path><path d="M181 920L-306 919" stroke-width="8" stroke="url(&quot;#SvgjsLinearGradient1078&quot;)" stroke-linecap="round" class="Right"></path><path d="M181 297L850 296" stroke-width="10" stroke="url(&quot;#SvgjsLinearGradient1079&quot;)" stroke-linecap="round" class="Left"></path><path d="M436 798L-66 797" stroke-width="6" stroke="url(&quot;#SvgjsLinearGradient1079&quot;)" stroke-linecap="round" class="Left"></path><path d="M545 573L931 572" stroke-width="10" stroke="url(&quot;#SvgjsLinearGradient1078&quot;)" stroke-linecap="round" class="Right"></path><path d="M715 536L414 535" stroke-width="8" stroke="url(&quot;#SvgjsLinearGradient1078&quot;)" stroke-linecap="round" class="Right"></path><path d="M592 718L1143 717" stroke-width="6" stroke="url(&quot;#SvgjsLinearGradient1079&quot;)" stroke-linecap="round" class="Left"></path><path d="M31 784L-398 783" stroke-width="6" stroke="url(&quot;#SvgjsLinearGradient1078&quot;)" stroke-linecap="round" class="Right"></path><path d="M531 752L178 751" stroke-width="6" stroke="url(&quot;#SvgjsLinearGradient1079&quot;)" stroke-linecap="round" class="Left"></path><path d="M727 660L1356 659" stroke-width="6" stroke="url(&quot;#SvgjsLinearGradient1079&quot;)" stroke-linecap="round" class="Left"></path><path d="M104 121L748 120" stroke-width="6" stroke="url(&quot;#SvgjsLinearGradient1079&quot;)" stroke-linecap="round" class="Left"></path><path d="M813 73L396 72" stroke-width="8" stroke="url(&quot;#SvgjsLinearGradient1078&quot;)" stroke-linecap="round" class="Right"></path><path d="M260 559L14 558" stroke-width="6" stroke="url(&quot;#SvgjsLinearGradient1079&quot;)" stroke-linecap="round" class="Left"></path><path d="M16 276L419 275" stroke-width="10" stroke="url(&quot;#SvgjsLinearGradient1078&quot;)" stroke-linecap="round" class="Right"></path><path d="M173 703L-481 702" stroke-width="10" stroke="url(&quot;#SvgjsLinearGradient1079&quot;)" stroke-linecap="round" class="Left"></path><path d="M310 249L70 248" stroke-width="6" stroke="url(&quot;#SvgjsLinearGradient1079&quot;)" stroke-linecap="round" class="Left"></path><path d="M316 256L-317 255" stroke-width="10" stroke="url(&quot;#SvgjsLinearGradient1078&quot;)" stroke-linecap="round" class="Right"></path></g><defs><mask id="SvgjsMask1077"><rect width="900" height="1000" fill="#ffffff"></rect></mask><linearGradient x1="0%" y1="0%" x2="100%" y2="0%" id="SvgjsLinearGradient1078"><stop stop-color="rgba(13, 26, 24, 0)" offset="0"></stop><stop stop-color="rgba(13, 26, 24, 1)" offset="1"></stop></linearGradient><linearGradient x1="100%" y1="0%" x2="0%" y2="0%" id="SvgjsLinearGradient1079"><stop stop-color="rgba(13, 26, 24, 0)" offset="0"></stop><stop stop-color="rgba(13, 26, 24, 1)" offset="1"></stop></linearGradient></defs></svg>