<?xml version="1.0" encoding="UTF-8" standalone="no"?>
<!DOCTYPE svg PUBLIC "-//W3C//DTD SVG 1.1//EN" "http://www.w3.org/Graphics/SVG/1.1/DTD/svg11.dtd">
<svg xmlns="http://www.w3.org/2000/svg" version="1.1" viewBox="0.00 0.00 500.00 500.00">
<path stroke="#899b1b" stroke-width="2.00" fill="none" stroke-linecap="butt" vector-effect="non-scaling-stroke" d="
  M 92.94 158.07
  Q 91.06 159.92 90.04 162.68"
/>
<path fill="#749f2d" d="
  M 88.53 149.68
  C 74.51 139.14 91.01 121.11 101.31 115.75
  Q 101.83 115.48 101.79 116.07
  C 101.26 123.95 103.55 129.75 106.76 136.74
  C 110.84 145.64 106.22 154.74 95.52 153.56
  Q 93.37 153.32 88.53 149.68
  Z"
/>
<path fill="#749f2d" d="
  M 27.06 129.88
  C 38.88 132.79 61.35 143.73 55.87 159.51
  C 50.99 173.56 36.24 166.37 34.00 155.50
  C 32.22 146.87 31.21 138.21 26.41 130.79
  A 0.60 0.60 0.0 0 1 27.06 129.88
  Z"
/>
<path fill="#94d01b" d="
  M 136.37 173.25
  C 129.51 173.70 122.33 168.28 123.27 160.74
  C 123.57 158.32 126.27 153.66 128.31 151.56
  Q 139.55 140.04 155.88 137.84
  Q 156.52 137.75 156.15 138.29
  C 151.55 144.96 151.98 151.23 150.70 158.48
  C 149.41 165.79 144.01 172.76 136.37 173.25
  Z"
/>
<path fill="#749f2d" d="
  M 92.94 158.07
  Q 91.06 159.92 90.04 162.68
  Q 88.18 172.27 80.30 173.40
  C 74.94 174.17 71.34 170.96 70.71 165.75
  C 69.81 158.24 68.69 150.71 62.26 145.83
  A 0.22 0.22 0.0 0 1 62.42 145.43
  Q 79.91 147.82 92.94 158.07
  Z"
/>
<path fill="#9d9708" d="
  M 92.94 158.07
  C 106.88 170.09 114.64 186.39 112.86 204.52
  C 110.31 230.48 90.03 248.84 76.58 269.39
  Q 70.07 279.33 70.91 291.06
  C 72.65 315.12 85.89 335.93 105.81 349.11
  A 0.28 0.27 -16.8 0 1 105.55 349.59
  C 90.14 343.18 78.56 332.64 70.64 317.85
  Q 63.43 304.38 61.49 290.25
  Q 54.50 239.36 73.02 189.30
  Q 73.59 187.76 75.24 185.14
  Q 75.59 184.58 75.56 185.24
  C 75.24 191.40 73.71 197.60 72.90 206.68
  C 72.69 209.09 72.07 253.58 84.31 242.86
  C 108.70 221.48 112.01 187.37 90.04 162.68
  Q 91.06 159.92 92.94 158.07
  Z"
/>
<path fill="#749f2d" d="
  M 20.48 181.43
  C 31.01 180.51 57.75 185.08 56.31 200.72
  C 55.83 205.92 52.06 210.37 46.96 211.31
  C 33.15 213.83 28.74 190.15 19.85 183.72
  Q 17.10 181.73 20.48 181.43
  Z"
/>
<path fill="#94d01b" d="
  M 159.03 191.54
  A 0.22 0.22 0.0 0 1 159.02 191.94
  C 145.13 197.41 143.65 215.46 127.24 217.01
  C 123.32 217.38 120.21 214.91 118.36 211.45
  Q 113.83 202.98 119.32 195.91
  C 127.65 185.16 147.94 186.54 159.03 191.54
  Z"
/>
<path fill="#749f2d" d="
  M 228.20 248.71
  C 249.65 246.43 263.54 260.27 262.68 281.62
  Q 262.66 282.25 262.03 282.25
  L 211.22 282.25
  A 0.76 0.75 -3.7 0 0 210.47 283.10
  C 212.87 301.94 228.41 313.93 246.78 307.27
  Q 255.57 304.09 260.52 295.29
  A 0.52 0.52 0.0 0 1 261.49 295.55
  L 261.50 305.00
  Q 261.50 305.52 261.03 305.75
  C 258.10 307.12 255.03 309.12 252.47 310.25
  C 233.68 318.58 208.26 313.05 202.40 291.08
  C 197.28 271.86 206.98 250.96 228.20 248.71
  Z
  M 211.11 277.04
  L 253.41 276.96
  A 0.29 0.29 0.0 0 0 253.70 276.67
  L 253.70 276.45
  A 23.29 21.41 89.9 0 0 232.25 253.20
  L 232.19 253.20
  A 23.29 21.41 89.9 0 0 210.82 276.53
  L 210.82 276.75
  A 0.29 0.29 0.0 0 0 211.11 277.04
  Z"
/>
<path fill="#749f2d" d="
  M 324.33 312.35
  C 298.92 318.93 274.27 303.97 278.69 275.40
  C 280.51 263.58 287.50 253.77 299.01 250.03
  C 307.80 247.17 319.06 247.96 326.86 252.77
  C 336.44 258.67 340.03 270.71 340.01 281.48
  A 0.77 0.77 0.0 0 1 339.24 282.25
  L 288.50 282.25
  A 0.75 0.74 -3.7 0 0 287.76 283.09
  C 289.73 298.95 300.47 310.01 316.66 308.96
  C 325.45 308.39 333.61 303.33 337.59 295.06
  A 0.55 0.55 0.0 0 1 338.64 295.30
  L 338.66 304.74
  Q 338.66 305.25 338.23 305.51
  Q 329.18 311.10 324.33 312.35
  Z
  M 288.31 277.04
  L 330.71 276.96
  A 0.24 0.24 0.0 0 0 330.95 276.72
  L 330.95 276.52
  A 23.36 21.42 89.9 0 0 309.49 253.20
  L 309.45 253.20
  A 23.36 21.42 89.9 0 0 288.07 276.60
  L 288.07 276.80
  A 0.24 0.24 0.0 0 0 288.31 277.04
  Z"
/>
<path fill="#749f2d" d="
  M 393.44 259.47
  C 387.14 251.09 377.51 258.30 372.14 263.22
  Q 371.77 263.56 371.77 264.06
  Q 371.76 282.53 371.42 301.00
  C 371.36 304.67 372.04 309.85 376.16 311.84
  A 0.48 0.48 0.0 0 1 375.95 312.75
  L 357.50 312.75
  A 0.50 0.49 30.7 0 1 357.26 311.82
  C 360.97 309.82 361.69 306.47 361.71 302.17
  Q 361.83 273.88 361.74 260.99
  Q 361.71 258.16 359.87 255.97
  C 359.13 255.09 357.55 254.61 356.73 253.57
  A 0.50 0.49 -27.4 0 1 356.98 252.79
  L 370.83 248.58
  Q 371.47 248.39 371.49 249.06
  L 371.66 256.26
  A 0.51 0.50 63.3 0 0 372.56 256.56
  Q 382.52 243.91 397.55 250.99
  A 0.60 0.59 -64.9 0 1 397.83 251.79
  L 394.12 259.41
  A 0.40 0.40 0.0 0 1 393.44 259.47
  Z"
/>
<path fill="#749f2d" d="
  M 452.13 306.09
  A 0.54 0.54 0.0 0 0 451.20 305.73
  C 443.04 313.98 429.10 316.30 418.63 311.41
  C 411.81 308.22 409.16 300.54 411.34 293.65
  C 415.69 279.87 440.89 274.69 451.45 271.89
  Q 451.89 271.77 451.87 271.32
  C 451.09 251.53 427.20 246.39 416.65 262.35
  Q 415.51 264.07 414.35 265.55
  A 0.48 0.48 0.0 0 1 413.50 265.25
  L 413.50 255.51
  Q 413.50 254.93 414.03 254.69
  C 424.98 249.72 431.56 247.04 443.80 249.19
  C 456.15 251.37 460.54 258.99 461.32 270.67
  C 462.06 281.76 461.52 293.31 461.73 304.47
  Q 461.83 309.90 466.36 311.91
  A 0.44 0.44 0.0 0 1 466.18 312.75
  L 452.78 312.75
  Q 452.32 312.75 452.30 312.28
  L 452.13 306.09
  Z
  M 451.51 276.99
  C 443.12 278.51 416.87 285.75 420.20 299.05
  Q 422.30 307.45 432.01 308.40
  C 439.97 309.17 446.84 305.17 451.59 299.00
  Q 451.95 298.53 451.96 297.93
  L 452.10 277.48
  Q 452.10 276.88 451.51 276.99
  Z"
/>
<path fill="#749f2d" d="
  M 168.41 254.51
  Q 158.57 254.47 148.22 254.49
  C 140.05 254.50 134.99 256.74 133.42 265.11
  A 0.56 0.56 0.0 0 1 132.31 265.01
  L 132.22 249.96
  Q 132.22 249.40 132.75 249.40
  L 184.79 249.34
  A 0.39 0.39 0.0 0 1 185.11 249.96
  L 144.51 306.79
  A 0.60 0.60 0.0 0 0 144.99 307.74
  Q 158.42 307.81 172.24 307.62
  Q 182.77 307.47 184.45 297.35
  Q 184.52 296.91 184.73 296.78
  Q 184.94 296.65 185.25 296.73
  A 0.34 0.34 0.0 0 1 185.50 297.06
  L 185.50 312.25
  Q 185.50 312.75 185.00 312.75
  L 129.47 312.75
  Q 128.64 312.75 129.12 312.07
  L 169.08 255.81
  Q 169.99 254.52 168.41 254.51
  Z"
/>
</svg>
